<svg xmlns="http://www.w3.org/2000/svg" style="width:0;height:0;">
    <!-- Github -->
    <symbol id="github" viewBox="0 0 24 24" xmlns="http://www.w3.org/2000/svg">
        <path d="M10.9,2.1c-4.6,0.5-8.3,4.2-8.8,8.7c-0.5,4.7,2.2,8.9,6.3,10.5C8.7,21.4,9,21.2,9,20.8v-1.6c0,0-0.4,0.1-0.9,0.1 c-1.4,0-2-1.2-2.1-1.9c-0.1-0.4-0.3-0.7-0.6-1C5.1,16.3,5,16.3,5,16.2C5,16,5.3,16,5.4,16c0.6,0,1.1,0.7,1.3,1c0.5,0.8,1.1,1,1.4,1 c0.4,0,0.7-0.1,0.9-0.2c0.1-0.7,0.4-1.4,1-1.8c-2.3-0.5-4-1.8-4-4c0-1.1,0.5-2.2,1.2-3C7.1,8.8,7,8.3,7,7.6c0-0.4,0-0.9,0.2-1.3 C7.2,6.1,7.4,6,7.5,6c0,0,0.1,0,0.1,0C8.1,6.1,9.1,6.4,10,7.3C10.6,7.1,11.3,7,12,7s1.4,0.1,2,0.3c0.9-0.9,2-1.2,2.5-1.3 c0,0,0.1,0,0.1,0c0.2,0,0.3,0.1,0.4,0.3C17,6.7,17,7.2,17,7.6c0,0.8-0.1,1.2-0.2,1.4c0.7,0.8,1.2,1.8,1.2,3c0,2.2-1.7,3.5-4,4 c0.6,0.5,1,1.4,1,2.3v2.6c0,0.3,0.3,0.6,0.7,0.5c3.7-1.5,6.3-5.1,6.3-9.3C22,6.1,16.9,1.4,10.9,2.1z"/>
    </symbol>
    <!-- Linkedin -->
    <symbol id="linkedin" viewBox="0 0 24 24" xmlns="http://www.w3.org/2000/svg">
       <path d="M19,3H5C3.895,3,3,3.895,3,5v14c0,1.105,0.895,2,2,2h14c1.105,0,2-0.895,2-2V5C21,3.895,20.105,3,19,3z M9,17H6.477v-7H9 V17z M7.694,8.717c-0.771,0-1.286-0.514-1.286-1.2s0.514-1.2,1.371-1.2c0.771,0,1.286,0.514,1.286,1.2S8.551,8.717,7.694,8.717z M18,17h-2.442v-3.826c0-1.058-0.651-1.302-0.895-1.302s-1.058,0.163-1.058,1.302c0,0.163,0,3.826,0,3.826h-2.523v-7h2.523v0.977 C13.93,10.407,14.581,10,15.802,10C17.023,10,18,10.977,18,13.174V17z"/>
    </symbol>
    <!-- Xing -->
    <symbol id="xing" viewBox="0 0 24 24" xmlns="http://www.w3.org/2000/svg">
       <path d="M 20 2 L 4 2 C 2.898438 2 2 2.898438 2 4 L 2 20 C 2 21.101563 2.898438 22 4 22 L 20 22 C 21.101563 22 22 21.101563 22 20 L 22 4 C 22 2.898438 21.101563 2 20 2 Z M 8.398438 15.101563 L 6.199219 15.101563 C 6 15.101563 5.898438 14.898438 6 14.699219 L 8.300781 10.5 C 8.300781 10.398438 8.300781 10.300781 8.300781 10.300781 L 6.800781 7.699219 C 6.699219 7.5 6.800781 7.300781 7 7.300781 L 9.199219 7.300781 C 9.300781 7.300781 9.398438 7.300781 9.398438 7.398438 L 11.101563 10.300781 C 11.101563 10.398438 11.101563 10.5 11.101563 10.5 L 8.601563 15 C 8.601563 15.101563 8.5 15.101563 8.398438 15.101563 Z M 18 5.398438 L 13.601563 13.5 C 13.601563 13.601563 13.601563 13.699219 13.601563 13.699219 L 16.5 18.699219 C 16.601563 18.898438 16.5 19.101563 16.300781 19.101563 L 14 19.101563 C 13.898438 19.101563 13.800781 19.101563 13.800781 19 L 10.800781 13.800781 C 10.800781 13.699219 10.800781 13.601563 10.800781 13.601563 L 15.398438 5.300781 C 15.398438 5 15.5 5 15.601563 5 L 17.800781 5 C 17.898438 5 18.101563 5.199219 18 5.398438 Z"/>
    </symbol>
    <!-- Ext Link -->
    <symbol id="link" viewBox="0 0 24 24" xmlns="http://www.w3.org/2000/svg">
       <path d="M 19.980469 2.9902344 A 1.0001 1.0001 0 0 0 19.869141 3 L 15 3 A 1.0001 1.0001 0 1 0 15 5 L 17.585938 5 L 8.2929688 14.292969 A 1.0001 1.0001 0 1 0 9.7070312 15.707031 L 19 6.4140625 L 19 9 A 1.0001 1.0001 0 1 0 21 9 L 21 4.1269531 A 1.0001 1.0001 0 0 0 19.980469 2.9902344 z M 5 3 C 3.9069372 3 3 3.9069372 3 5 L 3 19 C 3 20.093063 3.9069372 21 5 21 L 19 21 C 20.093063 21 21 20.093063 21 19 L 21 13 A 1.0001 1.0001 0 1 0 19 13 L 19 19 L 5 19 L 5 5 L 11 5 A 1.0001 1.0001 0 1 0 11 3 L 5 3 z"/>
    </symbol>
</svg>